# xmcd
#
# Track frame offsets:
#	150
#	16120
#	31207
#	44956
#	55971
#	67098
#	76502
#	88856
#	98296
#	111304
#	124381
#	135359
#	144540
#	157344
#	173440
#	186883
#	201152
#	213483
#
# Disc length: 2979
#
# Revision: 1
# Processed by: cddbd v1.5.1PL0 Copyright (c) Steve Scherf et al.
# Submitted via: CDex 1.40Beta8
# Normalized: r0:TDELIM( - )
#
DISCID=fc0ba112
DTITLE=Various Artist - Golden Country - Disc 2
DYEAR=1900
DGENRE=Country
TTITLE0=Willie Nelson - You were always on my mind
TTITLE1=Billie Jo Spears - Blanket on the ground
TTITLE2=Lee Greenwood - Dixie road
TTITLE3=Roger Miller - King of the road
TTITLE4=Conway Twitty - Hello Darling
TTITLE5=Merle Haggard - Legend of Bonnie and Clyde
TTITLE6=Porter Wagoner - Satisfied mind
TTITLE7=Charley Pride - Kiss an angel good morning
TTITLE8=Kenny Rogers - Ruby don't take your love to town
TTITLE9=Lynn Anderson - Rose garden
TTITLE10=Bellamy Brothers - Let your love flow
TTITLE11=Frankie Laine - Rawhide
TTITLE12=Faron Young - It's four in the morning
TTITLE13=Johnny Cash - A boy named Sue
TTITLE14=Pattie Page - Tennessee Waltz
TTITLE15=Bobby Bare - All american boy
TTITLE16=Charlie Rich - Behind closed doors
TTITLE17=Jim Reeves - He'll have to go
EXTD=ID3G: 2
EXTT0=
EXTT1=
EXTT2=
EXTT3=
EXTT4=
EXTT5=
EXTT6=
EXTT7=
EXTT8=
EXTT9=
EXTT10=
EXTT11=
EXTT12=
EXTT13=
EXTT14=
EXTT15=
EXTT16=
EXTT17=
PLAYORDER=
